<mxfile host="drawio-plugin" modified="2021-11-04T18:18:15.684Z" agent="5.0 (X11; Linux x86_64) AppleWebKit/537.36 (KHTML, like Gecko) Chrome/87.0.4280.141 Safari/537.36" etag="On8psJg_WQw_0YPOgAtM" version="14.7.4" type="embed" pages="2"><diagram id="LqFPzYQC3g5_JOqoec8N" name="add donation"><mxGraphModel dx="1453" dy="720" grid="1" gridSize="10" guides="1" tooltips="1" connect="1" arrows="1" fold="1" page="1" pageScale="1" pageWidth="850" pageHeight="1100" math="0" shadow="0"><root><mxCell id="0"/><mxCell id="1" parent="0"/><mxCell id="2" value="&lt;span style=&quot;color: rgba(0 , 0 , 0 , 0) ; font-family: monospace ; font-size: 0px&quot;&gt;%3CmxGraphModel%3E%3Croot%3E%3CmxCell%20id%3D%220%22%2F%3E%3CmxCell%20id%3D%221%22%20parent%3D%220%22%2F%3E%3CmxCell%20id%3D%222%22%20value%3D%22Food%22%20style%3D%22rounded%3D0%3BwhiteSpace%3Dwrap%3Bhtml%3D1%3BfillColor%3D%2399FFCC%3B%22%20vertex%3D%221%22%20parent%3D%221%22%3E%3CmxGeometry%20x%3D%22105%22%20y%3D%22320%22%20width%3D%22120%22%20height%3D%2230%22%20as%3D%22geometry%22%2F%3E%3C%2FmxCell%3E%3C%2Froot%3E%3C%2FmxGraphModel%3E&lt;/span&gt;" style="rounded=0;whiteSpace=wrap;html=1;" parent="1" vertex="1"><mxGeometry x="80" y="70" width="350" height="700" as="geometry"/></mxCell><mxCell id="3" value="Get involved" style="rounded=0;whiteSpace=wrap;html=1;" parent="1" vertex="1"><mxGeometry x="85" y="90" width="340" height="20" as="geometry"/></mxCell><mxCell id="4" value="First name" style="rounded=0;whiteSpace=wrap;html=1;" parent="1" vertex="1"><mxGeometry x="101" y="130" width="139" height="20" as="geometry"/></mxCell><mxCell id="5" value="Last name" style="rounded=0;whiteSpace=wrap;html=1;" parent="1" vertex="1"><mxGeometry x="260" y="130" width="139" height="20" as="geometry"/></mxCell><mxCell id="6" value="Email" style="rounded=0;whiteSpace=wrap;html=1;fillColor=#fff2cc;strokeColor=#d6b656;" parent="1" vertex="1"><mxGeometry x="100" y="160" width="139" height="20" as="geometry"/></mxCell><mxCell id="7" value="Phone number" style="rounded=0;whiteSpace=wrap;html=1;fillColor=#fff2cc;strokeColor=#d6b656;" parent="1" vertex="1"><mxGeometry x="260" y="160" width="139" height="20" as="geometry"/></mxCell><mxCell id="8" value="What do you want to donate?&lt;br&gt;Choose from list&amp;nbsp;" style="rounded=0;whiteSpace=wrap;html=1;" parent="1" vertex="1"><mxGeometry x="100" y="200" width="300" height="60" as="geometry"/></mxCell><mxCell id="9" value="First name" style="rounded=0;whiteSpace=wrap;html=1;fillColor=#fff2cc;strokeColor=#d6b656;" parent="1" vertex="1"><mxGeometry x="101" y="130" width="139" height="20" as="geometry"/></mxCell><mxCell id="10" value="Last name" style="rounded=0;whiteSpace=wrap;html=1;fillColor=#fff2cc;strokeColor=#d6b656;" parent="1" vertex="1"><mxGeometry x="260" y="130" width="139" height="20" as="geometry"/></mxCell><mxCell id="11" value="redirect to a pay page" style="text;html=1;align=center;verticalAlign=middle;resizable=0;points=[];autosize=1;strokeColor=none;" parent="1" vertex="1"><mxGeometry x="350" y="350" width="130" height="20" as="geometry"/></mxCell><mxCell id="12" value="I want to donate&amp;nbsp;" style="html=1;shadow=0;dashed=0;shape=mxgraph.bootstrap.rrect;rSize=5;strokeColor=#d79b00;strokeWidth=1;fillColor=#ffe6cc;whiteSpace=wrap;align=left;verticalAlign=middle;fontStyle=0;fontSize=14;spacingLeft=10;" parent="1" vertex="1"><mxGeometry x="120" y="290" width="140" height="40" as="geometry"/></mxCell><mxCell id="13" value="" style="shape=triangle;direction=south;fillColor=#ffffff;strokeColor=none;perimeter=none;" parent="12" vertex="1"><mxGeometry x="1" y="0.5" width="10" height="5" relative="1" as="geometry"><mxPoint x="-17" y="-2.5" as="offset"/></mxGeometry></mxCell><mxCell id="14" value="" style="html=1;shadow=0;dashed=0;shape=mxgraph.bootstrap.rrect;rSize=5;fillColor=#ffffff;strokeColor=#999999;" parent="1" vertex="1"><mxGeometry x="120" y="333" width="210" height="207" as="geometry"/></mxCell><mxCell id="15" value="Money" style="fillColor=none;strokeColor=none;align=left;spacing=20;fontSize=14;" parent="14" vertex="1"><mxGeometry width="210" height="30" relative="1" as="geometry"><mxPoint y="10" as="offset"/></mxGeometry></mxCell><mxCell id="16" value="Food" style="fillColor=none;strokeColor=none;align=left;spacing=20;fontSize=14;" parent="14" vertex="1"><mxGeometry width="210" height="30" relative="1" as="geometry"><mxPoint y="40" as="offset"/></mxGeometry></mxCell><mxCell id="17" value="Toys" style="strokeColor=none;align=left;spacing=20;fontSize=14;fillColor=#66B2FF;" parent="14" vertex="1"><mxGeometry width="210" height="30" relative="1" as="geometry"><mxPoint y="70" as="offset"/></mxGeometry></mxCell><mxCell id="18" value="Drugs" style="fillColor=none;strokeColor=none;align=left;spacing=20;fontSize=14;" parent="14" vertex="1"><mxGeometry y="97" width="210" height="30" as="geometry"/></mxCell><mxCell id="19" value="Others" style="strokeColor=none;align=left;spacing=20;fontSize=14;fillColor=none;" parent="14" vertex="1"><mxGeometry y="127" width="210" height="30" as="geometry"/></mxCell><mxCell id="20" value="Submit" style="rounded=0;whiteSpace=wrap;html=1;fillColor=#e1d5e7;strokeColor=#9673a6;" parent="1" vertex="1"><mxGeometry x="190" y="690" width="120" height="30" as="geometry"/></mxCell><mxCell id="21" value="Details&amp;nbsp;" style="rounded=0;whiteSpace=wrap;html=1;align=center;fontColor=#E6E6E6;" parent="1" vertex="1"><mxGeometry x="105" y="580" width="295" height="100" as="geometry"/></mxCell><mxCell id="22" value="if the user choose one of the option {food, toys, drugs,others} we must have care to set a final address" style="text;html=1;align=center;verticalAlign=middle;resizable=0;points=[];autosize=1;strokeColor=none;" parent="1" vertex="1"><mxGeometry x="425" y="550" width="560" height="20" as="geometry"/></mxCell><mxCell id="23" value="after submit we will send you a message of confirmation" style="text;html=1;align=center;verticalAlign=middle;resizable=0;points=[];autosize=1;strokeColor=none;" parent="1" vertex="1"><mxGeometry x="320" y="695" width="310" height="20" as="geometry"/></mxCell><mxCell id="24" value="Address - disabled input" style="rounded=0;whiteSpace=wrap;html=1;align=left;" parent="1" vertex="1"><mxGeometry x="105" y="550" width="295" height="20" as="geometry"/></mxCell><mxCell id="25" value="&lt;font color=&quot;#ff3333&quot;&gt;donation page&lt;/font&gt;" style="text;html=1;align=center;verticalAlign=middle;resizable=0;points=[];autosize=1;strokeColor=none;" parent="1" vertex="1"><mxGeometry x="5" y="20" width="90" height="20" as="geometry"/></mxCell><mxCell id="26" value="donation form" style="text;html=1;align=center;verticalAlign=middle;resizable=0;points=[];autosize=1;strokeColor=none;" parent="1" vertex="1"><mxGeometry x="80" y="70" width="90" height="20" as="geometry"/></mxCell><mxCell id="27" value="logo" style="ellipse;whiteSpace=wrap;html=1;aspect=fixed;align=center;" parent="1" vertex="1"><mxGeometry x="235" y="60" width="30" height="30" as="geometry"/></mxCell><mxCell id="28" value="&lt;font color=&quot;#0d0d0d&quot;&gt;input uri&amp;nbsp; auto fill&lt;/font&gt;" style="text;html=1;align=center;verticalAlign=middle;resizable=0;points=[];autosize=1;strokeColor=none;fontColor=#F2F2F2;" parent="1" vertex="1"><mxGeometry x="410" y="140" width="100" height="20" as="geometry"/></mxCell><mxCell id="29" value="Cancel" style="rounded=0;whiteSpace=wrap;html=1;fillColor=#dae8fc;strokeColor=#6c8ebf;" parent="1" vertex="1"><mxGeometry x="190" y="730" width="120" height="30" as="geometry"/></mxCell><mxCell id="30" value="" style="rounded=1;whiteSpace=wrap;html=1;" parent="1" vertex="1"><mxGeometry x="80" y="650" width="120" height="60" as="geometry"/></mxCell></root></mxGraphModel></diagram><diagram id="Ns-EaLBcbK5fWGkrKR0E" name="my donations"><mxGraphModel dx="1453" dy="720" grid="1" gridSize="10" guides="1" tooltips="1" connect="1" arrows="1" fold="1" page="1" pageScale="1" pageWidth="850" pageHeight="1100" math="0" shadow="0"><root><mxCell id="S9-3MbtKw50zDzsbrb46-0"/><mxCell id="S9-3MbtKw50zDzsbrb46-1" parent="S9-3MbtKw50zDzsbrb46-0"/><mxCell id="S9-3MbtKw50zDzsbrb46-2" value="donation id" style="rounded=0;whiteSpace=wrap;html=1;" parent="S9-3MbtKw50zDzsbrb46-1" vertex="1"><mxGeometry x="20" y="10" width="100" height="40" as="geometry"/></mxCell><mxCell id="We2unXlMIKqibKMwmagy-0" value="1" style="rounded=0;whiteSpace=wrap;html=1;" parent="S9-3MbtKw50zDzsbrb46-1" vertex="1"><mxGeometry x="20" y="80" width="100" height="40" as="geometry"/></mxCell><mxCell id="We2unXlMIKqibKMwmagy-1" value="donation type" style="rounded=0;whiteSpace=wrap;html=1;" parent="S9-3MbtKw50zDzsbrb46-1" vertex="1"><mxGeometry x="140" y="10" width="100" height="40" as="geometry"/></mxCell><mxCell id="We2unXlMIKqibKMwmagy-2" value="MONEY" style="rounded=0;whiteSpace=wrap;html=1;" parent="S9-3MbtKw50zDzsbrb46-1" vertex="1"><mxGeometry x="140" y="80" width="100" height="40" as="geometry"/></mxCell><mxCell id="We2unXlMIKqibKMwmagy-3" value="2" style="rounded=0;whiteSpace=wrap;html=1;" parent="S9-3MbtKw50zDzsbrb46-1" vertex="1"><mxGeometry x="20" y="130" width="100" height="40" as="geometry"/></mxCell><mxCell id="We2unXlMIKqibKMwmagy-4" value="FOOD" style="rounded=0;whiteSpace=wrap;html=1;" parent="S9-3MbtKw50zDzsbrb46-1" vertex="1"><mxGeometry x="140" y="130" width="100" height="40" as="geometry"/></mxCell><mxCell id="We2unXlMIKqibKMwmagy-5" value="PAY" style="rounded=0;whiteSpace=wrap;html=1;fillColor=#e1d5e7;strokeColor=#9673a6;" parent="S9-3MbtKw50zDzsbrb46-1" vertex="1"><mxGeometry x="340" y="80" width="100" height="40" as="geometry"/></mxCell><mxCell id="We2unXlMIKqibKMwmagy-6" value="3" style="rounded=0;whiteSpace=wrap;html=1;" parent="S9-3MbtKw50zDzsbrb46-1" vertex="1"><mxGeometry x="20" y="180" width="100" height="40" as="geometry"/></mxCell><mxCell id="We2unXlMIKqibKMwmagy-7" value="MONEY" style="rounded=0;whiteSpace=wrap;html=1;" parent="S9-3MbtKw50zDzsbrb46-1" vertex="1"><mxGeometry x="140" y="180" width="100" height="40" as="geometry"/></mxCell><mxCell id="We2unXlMIKqibKMwmagy-8" value="paid" style="rounded=0;whiteSpace=wrap;html=1;fillColor=#d5e8d4;strokeColor=#82b366;" parent="S9-3MbtKw50zDzsbrb46-1" vertex="1"><mxGeometry x="260" y="180" width="60" height="40" as="geometry"/></mxCell><mxCell id="We2unXlMIKqibKMwmagy-9" value="not paid" style="rounded=0;whiteSpace=wrap;html=1;fillColor=#f8cecc;strokeColor=#b85450;" parent="S9-3MbtKw50zDzsbrb46-1" vertex="1"><mxGeometry x="260" y="80" width="60" height="40" as="geometry"/></mxCell></root></mxGraphModel></diagram></mxfile>